HIERARCHY
ROOT Hips
{
  OFFSET 0 0 0
  CHANNELS 6 Xposition Yposition Zposition Zrotation Xrotation Yrotation
  JOINT Spine
  {
    OFFSET 0 10.1816 0.131521
    CHANNELS 3 Zrotation Xrotation Yrotation
    JOINT Spine1
    {
      OFFSET 0 10.0835 -1.0008
      CHANNELS 3 Zrotation Xrotation Yrotation
      JOINT Spine2
      {
        OFFSET 0 9.10001 -1.37342
        CHANNELS 3 Zrotation Xrotation Yrotation
        JOINT Neck
        {
          OFFSET 0 16.6717 -2.51617
          CHANNELS 3 Zrotation Xrotation Yrotation
          JOINT Head
          {
            OFFSET 0 9.61788 1.68501
            CHANNELS 3 Zrotation Xrotation Yrotation
            End Site
            {
              OFFSET 0 0 0
            }
          }
        }
        JOINT LeftShoulder
        {
          OFFSET 4.57045 10.946 -2.62799
          CHANNELS 3 Zrotation Xrotation Yrotation
          JOINT LeftArm
          {
            OFFSET 10.5924 -0.524583 -2.23212
            CHANNELS 3 Zrotation Xrotation Yrotation
            JOINT LeftForeArm
            {
              OFFSET 27.8415 -8.94286e-05 3.74589e-05
              CHANNELS 3 Zrotation Xrotation Yrotation
              JOINT LeftHand
              {
                OFFSET 28.3288 -1.74407e-05 3.78045e-05
                CHANNELS 3 Zrotation Xrotation Yrotation
                End Site
                {
                  OFFSET 0 0 0
                }
              }
            }
          }
        }
        JOINT RightShoulder
        {
          OFFSET -4.56997 10.9462 -2.62802
          CHANNELS 3 Zrotation Xrotation Yrotation
          JOINT RightArm
          {
            OFFSET -10.5928 -0.524798 -2.2321
            CHANNELS 3 Zrotation Xrotation Yrotation
            JOINT RightForeArm
            {
              OFFSET -27.8415 -3.30792e-05 1.16763e-05
              CHANNELS 3 Zrotation Xrotation Yrotation
              JOINT RightHand
              {
                OFFSET -28.3288 0 5.5816e-05
                CHANNELS 3 Zrotation Xrotation Yrotation
                End Site
                {
                  OFFSET 0 0 0
                }
              }
            }
          }
        }
      }
    }
  }
  JOINT LeftUpLeg
  {
    OFFSET 8.20778 -6.75171 -1.59956
    CHANNELS 3 Zrotation Xrotation Yrotation
    JOINT LeftLeg
    {
      OFFSET 0 -44.3705 0.284643
      CHANNELS 3 Zrotation Xrotation Yrotation
      JOINT LeftFoot
      {
        OFFSET 0 -44.4279 -2.98219
        CHANNELS 3 Zrotation Xrotation Yrotation
        JOINT LeftToeBase
        {
          OFFSET 0 -8.72867 10.7106
          CHANNELS 3 Zrotation Xrotation Yrotation
          End Site
          {
            OFFSET 0 0 0
          }
        }
      }
    }
  }
  JOINT RightUpLeg
  {
    OFFSET -8.2078 -6.75166 -1.59956
    CHANNELS 3 Zrotation Xrotation Yrotation
    JOINT RightLeg
    {
      OFFSET 0 -44.3705 0.286156
      CHANNELS 3 Zrotation Xrotation Yrotation
      JOINT RightFoot
      {
        OFFSET 0 -44.4277 -2.98379
        CHANNELS 3 Zrotation Xrotation Yrotation
        JOINT RightToeBase
        {
          OFFSET 0 -8.72867 10.7106
          CHANNELS 3 Zrotation Xrotation Yrotation
          End Site
          {
            OFFSET 0 0 0
          }
        }
      }
    }
  }
}
MOTION
Frames:	16
Frame Time:	0.0333333
6.3227 109.287 294.742 5.11552 -2.70616 13.4152 -1.26203 0.235651 -0.830596 -0.609901 0.470933 -1.37693 -0.609902 0.470929 -1.37693 -5.4194 -21.5693 -5.01876 -1.82986 -5.14533 -5.02149 29.3884 6.83336 -6.25791 21.8331 -52.0764 -21.8392 2.94557 -24.8012 -12.0619 0.219424 -12.9821 -21.7281 -19.5178 5.81998 13.3482 -59.8004 -48.1898 -4.98809 -3.52301 -11.2461 14.9565 8.41267 -8.42924 8.4705 -6.40835 -27.3104 -2.76526 1.46449 18.5086 -1.20194 -12.544 16.4203 2.20926 8.424e-05 -6.35858e-05 0.000737393 -5.49067 -23.4901 -9.03451 1.37652 40.8532 -25.8964 5.72188 -2.27355 -0.493117 -0.0661339 0.0365035 0.00400682 
6.32664 110.263 297.562 4.7743 -13.1146 12.7985 -1.40987 1.01059 -1.17967 0.0557193 2.0081 -1.32436 0.0557173 2.00808 -1.32436 -4.3921 -16.1407 -4.09697 -1.33988 -5.8109 -4.1803 36.3192 3.98837 -13.3364 14.2309 -42.9133 -17.4702 -1.72325 -22.7221 -20.587 6.7285 -12.999 -18.3068 -22.1909 5.08376 21.3929 -52.514 -41.3901 -6.3311 1.3254 -8.83279 23.4382 1.64007 -9.39365 4.51339 -9.7637 -29.0051 -6.82188 0.742882 5.96706 4.33451 -13.1069 23.1573 2.83876 7.93034e-05 -6.17495e-05 0.000805164 -9.74744 -37.812 -10.6099 4.57685 45.0085 -22.916 13.5057 -4.21372 -0.596597 4.8505e-07 -3.31848e-06 0.0043628 
6.02812 112.468 302.995 3.79652 -24.5945 8.63261 -1.69679 1.6377 -1.64848 -0.215184 3.25055 -1.64974 -0.215184 3.25055 -1.64974 -4.62982 -11.8642 -3.26499 -0.717331 -6.29187 -3.20355 37.1228 0.591335 -19.1902 11.6819 -37.6878 -15.9805 -4.0505 -16.6575 -22.9055 7.83358 -7.88436 -16.7652 -24.0696 3.71852 31.9885 -43.7734 -34.4864 -6.79227 5.76927 -6.58778 28.3258 -4.87467 -10.9562 3.04855 -5.10001 -28.6239 -5.72882 -3.33504 -3.09859 4.60103 -16.1243 29.534 3.31672 7.3787e-05 -5.96307e-05 0.000871903 -8.36156 -49.69 -8.90079 7.39542 54.1381 -21.8634 8.87956 -5.154 -0.854408 0.000269468 2.70255e-05 0.00471879 
5.62325 117.319 310.492 2.50596 -35.8406 4.4024 -1.89859 2.00328 -1.90426 -0.616833 3.97311 -1.85264 -0.616833 3.97311 -1.85264 -6.11284 -9.85527 -2.67336 -0.18731 -6.5705 -2.40332 32.9259 -0.636345 -20.6593 9.3825 -34.6179 -19.9584 -6.18224 -9.46564 -25.2433 7.39482 -2.88534 -14.763 -22.3452 2.9388 40.9741 -38.3467 -29.8398 -6.32162 9.10139 -2.84223 32.4466 -8.34643 -11.1406 1.52866 -2.34436 -29.4987 -4.71971 -2.66713 -3.26294 6.03169 -17.9741 30.6816 3.67531 6.77623e-05 -5.72424e-05 0.000937055 -4.45197 -57.9946 -5.13316 8.70357 64.1254 -22.777 6.66468 -6.22658 -0.793401 0.000383163 3.77071e-05 0.00507274 
5.27173 121.991 316.356 0.729398 -47.1866 2.05138 -1.63289 2.29601 -1.79216 -0.632515 4.56572 -1.8095 -0.632516 4.56571 -1.80951 -6.30212 -8.07761 -2.45929 0.293474 -6.81469 -1.69762 29.3487 -1.31966 -21.6904 6.54474 -30.6725 -22.8759 -8.65804 -3.10691 -29.6428 6.75369 -0.508388 -12.2397 -18.9826 3.5252 45.492 -34.7943 -26.5247 -5.22029 11.5619 1.95359 37.4044 -9.23943 -10.3317 -0.739378 -2.01189 -29.9435 -4.76634 -0.036624 -3.87609 8.17007 -16.2464 31.5406 4.15948 6.1301e-05 -5.45974e-05 0.00100007 -3.83713 -63.839 -4.5929 9.82196 69.9286 -25.7036 3.01876 -3.81097 -0.942325 0.000466912 4.49109e-05 0.00550492 
4.95179 129.273 323.072 -3.54432 -59.4408 -2.42912 -0.603648 2.74178 -1.15943 -0.720094 5.47977 -1.72486 -0.720089 5.47976 -1.72486 -5.44155 -5.59755 -2.63285 0.718011 -7.11388 -1.05193 27.0251 -2.02235 -24.0488 3.89411 -27.1427 -25.4671 -9.35855 1.83691 -30.2305 3.09544 1.6189 -11.6885 -18.2 4.17512 47.3625 -28.6152 -23.3923 -2.56481 12.6027 4.52088 38.6732 -8.2187 -10.4783 -0.509639 0.475079 -27.9552 -3.60462 -0.423864 -3.97575 6.07399 -13.5095 28.534 3.43651 5.44746e-05 -5.17085e-05 0.00106038 -0.817602 -64.7164 -2.16235 9.11229 73.1406 -26.4253 0.318652 -3.34651 -1.10379 0.000523388 4.89304e-05 0.00606228 
4.56262 134.849 331.368 -10.8967 -71.7613 -11.3515 -0.390358 3.4242 -0.803738 -0.893933 6.83615 -1.34376 -0.893933 6.8361 -1.34376 -5.02187 -3.01192 -2.84874 1.22802 -8.01782 -0.417782 26.7184 -2.22034 -24.9183 1.11881 -24.1298 -27.6053 -8.68396 4.44687 -29.098 -2.90817 3.25765 -12.8027 -22.0118 3.88811 48.9241 -20.7539 -20.0221 -0.234633 12.5503 3.67487 37.6884 -5.26464 -11.8993 2.09951 -1.15398 -36.3214 -4.58612 4.46651 16.1472 1.49345 -13.9285 16.0912 2.60661 4.73547e-05 -4.85886e-05 0.00111745 2.50962 -64.5516 0.706353 8.68799 73.3412 -28.246 -5.68388 -2.70981 -0.957039 0.000555265 5.00586e-05 0.00669283 
4.16226 140.935 341.076 -35.6718 -81.7082 -38.9016 -0.0195281 4.07885 -0.213159 -0.96497 8.12738 -0.656906 -0.964965 8.12739 -0.656908 -5.32759 -0.97009 -2.86824 1.67868 -8.85876 0.277273 28.9373 -1.87729 -23.6771 1.25428 -23.6494 -28.6873 -4.22498 8.42982 -25.7544 -8.57539 -1.90376 -14.4942 -27.7319 3.02154 48.9846 -18.2247 -18.9077 0.171999 8.91837 5.15026 34.4534 -1.21354 -17.484 3.74295 -2.55978 -41.8023 -5.4901 10.2954 30.7061 -1.63466 -17.5026 8.81159 2.48737 4.00129e-05 -4.52505e-05 0.00117071 4.8678 -63.6949 2.03518 9.9068 71.4748 -32.4769 -13.2861 -1.99549 -0.355533 0.000565216 4.85889e-05 0.00734456 
3.7104 148.091 350.032 -114.683 -83.5589 -120.561 0.206126 4.29203 0.238825 -1.21089 8.54071 -0.321032 -1.21089 8.54069 -0.321032 -5.22769 0.890019 -2.92066 1.6398 -8.5221 1.29936 32.5868 -0.931531 -21.5213 1.50345 -23 -24.7576 -7.61703 6.07643 -33.3042 -13.9993 1.96895 -15.3633 -31.0222 2.42794 47.7229 -14.9146 -19.8666 -0.673545 11.747 1.1725 40.2333 5.42339 -12.6443 5.35028 -0.722439 -41.969 -3.40131 10.8751 40.7119 -4.64143 -20.2954 7.06099 2.11278 3.25208e-05 -4.17071e-05 0.00121961 5.83546 -58.5304 2.07551 8.58714 66.1402 -33.3581 -16.6804 -0.653388 0.332007 0.000555915 4.48144e-05 0.00796549 
3.17028 156.544 357.869 -146.82 -76.6308 -154.829 0.380255 4.22413 0.336016 -1.3842 8.41009 -0.611648 -1.3842 8.4101 -0.611642 -5.11848 1.93223 -2.844 1.80218 -8.09648 2.36793 34.5335 0.70302 -19.4183 5.57248 -22.0255 -18.7043 -12.3064 6.55405 -40.9641 -18.0719 4.42512 -16.6773 -33.8647 1.40504 46.9657 -11.767 -21.1958 -0.0966722 14.9063 -1.39422 43.3959 11.3595 -7.38577 8.68519 3.30748 -32.8282 0.726183 7.29621 45.9402 -6.81979 -14.9878 11.4445 2.7255 2.49498e-05 -3.79711e-05 0.00126359 6.42782 -47.896 1.14231 6.6523 62.7276 -31.4384 -16.5549 2.35965 0.914936 0.000530035 3.90284e-05 0.0085036 
2.6201 165.822 364.554 -151.411 -69.8137 -161.196 0.88078 3.78084 0.209127 -0.720626 7.53372 -1.14461 -0.720621 7.53365 -1.14461 -6.07491 0.207823 -2.29643 2.75739 -8.69073 3.09482 32.4077 1.95349 -19.3982 13.3102 -21.3838 -12.3963 -13.829 10.2686 -45.4324 -21.4515 2.21235 -18.5281 -39.8433 0.0354181 45.3769 -8.02628 -21.806 2.93912 15.0746 -0.999458 40.0193 14.7074 -7.97926 14.6662 5.84347 -15.9681 4.27399 6.71219 44.8253 -4.23872 -11.5847 17.7265 3.38926 1.73717e-05 -3.40555e-05 0.00130211 5.83605 -34.301 -1.54936 5.06153 61.7777 -29.8564 -16.4073 10.0652 2.05783 0.000490249 3.15242e-05 0.00890691 
2.13278 175.506 370.577 -148.896 -66.8985 -159.61 1.50884 2.43349 -0.0349232 0.396136 4.8455 -1.79386 0.396139 4.84547 -1.79385 -6.58128 -3.29541 -2.06903 3.79257 -10.3374 3.84999 30.6897 2.87114 -20.7628 21.5779 -20.1894 -4.32999 -14.8899 13.4006 -53.5516 -24.7492 0.079032 -18.7824 -45.8629 -0.278554 41.84 -5.64373 -22.9234 5.80295 16.6232 0.522388 39.6158 17.2634 -8.66553 19.942 7.38935 1.70541 8.03374 7.8422 39.6889 0.671236 -13.6688 23.0736 4.25785 9.85791e-06 -2.99731e-05 0.00133461 4.65912 -22.1595 -4.9709 2.63638 60.7401 -27.2338 -16.0635 18.9614 3.26885 0.00043923 2.25949e-05 0.00912341 
1.65395 185.117 376.633 -142.366 -68.6777 -152.276 1.84966 0.551632 -0.313243 1.08581 1.08788 -2.46669 1.08581 1.08783 -2.46668 -5.76581 -7.09835 -2.71708 4.53767 -11.9485 4.51769 33.3651 4.99874 -19.398 28.9341 -20.499 3.50116 -15.1794 13.0866 -65.2509 -25.4562 -2.16114 -16.5334 -48.7283 1.58382 35.9879 -7.44204 -24.5495 2.3484 18.2772 3.60787 49.2568 19.0822 -8.99136 20.7978 8.94044 16.6463 12.3464 7.69848 31.2225 4.01358 -14.3809 29.9608 5.20506 2.48011e-06 -2.57368e-05 0.00136053 2.66643 -14.191 -8.99372 0.562877 59.2645 -25.816 -16.3802 24.8959 4.30639 0.000379653 1.25337e-05 0.0091011 
1.16671 193.739 383.112 -130.114 -73.1792 -137.492 1.78885 -1.19658 -0.656747 1.1354 -2.39521 -3.29402 1.1354 -2.39529 -3.29402 -4.42607 -11.2434 -3.5691 5.20088 -11.8015 4.88317 36.3054 9.20742 -13.9751 35.3261 -24.7485 11.0996 -12.7365 6.92828 -76.5386 -23.0854 -2.72351 -8.41252 -48.0717 5.28782 28.2721 -12.9716 -26.9882 -5.48961 17.4762 4.47111 60.9881 20.328 -9.44666 19.0694 10.4118 28.5392 16.559 6.57416 20.3537 5.54556 -15.0491 35.574 6.00423 -4.69016e-06 -2.13593e-05 0.00137932 0.107159 -9.94606 -13.4978 -0.306816 57.7727 -25.9855 -17.4703 26.8162 4.91614 0.000314189 1.634e-06 0.00833543 
0.84189 200.287 390.001 -104.259 -77.3208 -108.608 1.48451 -2.66381 -1.12107 0.656051 -5.30118 -4.35368 0.656043 -5.3013 -4.35368 -2.48345 -13.6653 -4.60987 5.23692 -10.5798 5.42512 33.0528 14.1468 -4.72243 42.986 -35.2596 17.3257 -6.28026 -3.59917 -82.5103 -19.3381 0.647811 6.935 -42.9192 8.51041 21.3491 -19.8862 -30.3573 -16.7637 14.1458 0.105069 70.8972 18.5851 -9.25552 13.425 12.053 41.5445 18.9063 1.18153 1.41556 6.42299 -13.2849 44.7587 6.63825 -1.15813e-05 -1.68535e-05 0.00139043 -1.6282 -9.21216 -16.8929 -0.785778 56.5628 -24.6304 -17.7645 27.5275 5.00381 0.000245512 -9.81111e-06 0.00754228 
0.766643 204.198 397.401 -64.3102 -76.8992 -66.266 1.13322 -3.69336 -1.35507 0.0897024 -7.33638 -4.92644 0.0896979 -7.33648 -4.92645 0.473372 -13.4729 -6.85384 3.80591 -9.93132 6.0589 25.1337 16.1628 4.54336 54.3323 -50.3525 22.3447 -0.716287 -14.2932 -80.3075 -8.94801 10.6264 21.965 -32.8992 10.0258 15.7086 -27.9074 -36.1764 -28.2714 7.62375 -10.6562 76.1346 8.36985 -2.6224 0.933097 14.4001 44.2711 18.8342 -1.93995 -2.38182 3.23015 -13.5931 47.1694 7.07915 -1.81218e-05 -1.22323e-05 0.00139329 -1.36439 -12.2608 -17.0325 -2.66856 55.3565 -21.8929 -17.3335 28.3768 4.91254 0.000176295 -2.15084e-05 0.00669945 
